<svg width="104" height="44" viewBox="0 0 104 44" fill="none" xmlns="http://www.w3.org/2000/svg">
<g clip-path="url(#clip0_433_470)">
<g clip-path="url(#clip1_433_470)">
<path d="M100.692 0H73.6146C72.1762 0 71.0762 1.1 71.0762 2.53846V17.7692C71.0762 19.2077 72.2608 20.3077 73.6146 20.3077H100.692C102.13 20.3077 103.23 19.2077 103.23 17.7692V2.53846C103.23 1.1 102.045 0 100.692 0Z" fill="white"></path>
<path d="M100.691 0.845703C101.622 0.845703 102.383 1.60724 102.383 2.53801V17.7688C102.383 18.6995 101.622 19.4611 100.691 19.4611H73.6142C72.6834 19.4611 71.9219 18.6995 71.9219 17.7688V2.53801C71.9219 1.60724 72.6834 0.845703 73.6142 0.845703H100.691Z" fill="#006FCF"></path>
<path d="M78.667 8.68861L79.322 10.276H78.0172L78.667 8.68861ZM92.269 8.75461H89.75V9.45438H92.2284V10.5028H89.755V11.2829H92.274V11.9082L94.0315 10.0086L92.274 8.02861L92.269 8.75461ZM80.3695 6.77461H83.7499L84.5004 8.41192L85.196 6.76953H93.9706L94.8827 7.77645L95.8262 6.76953H99.8564L96.8788 10.0289L99.826 13.268H95.7357L94.8235 12.2611L93.8716 13.268H79.5631L79.1451 12.2611H78.189L77.7701 13.268H74.4608L77.2413 6.76953H80.1436L80.3695 6.77461ZM87.6997 7.68676H85.8052L84.536 10.6788L83.161 7.68676H81.2808V11.7568L79.5377 7.68676H77.8514L75.8358 12.3508H77.1516L77.5696 11.3438H79.7662L80.1842 12.3508H82.4857V9.02115L83.9674 12.3558H84.9743L86.4466 9.0313V12.3567H87.6803L87.7006 7.68592L87.6997 7.68676ZM95.6028 10.0289L97.7444 7.68676H96.2027L94.848 9.14722L93.5382 7.68676H88.551V12.3558H93.4671L94.8328 10.8852L96.1427 12.3558H97.7292L95.6037 10.0289H95.6028Z" fill="white"></path>
</g>
</g>
<g clip-path="url(#clip2_433_470)">
<path d="M65.1544 23.6924H38.0775C36.6391 23.6924 35.5391 24.7924 35.5391 26.2308V41.4616C35.5391 42.9001 36.7237 44.0001 38.0775 44.0001H65.1544C66.5929 44.0001 67.6929 42.9001 67.6929 41.4616V26.2308C67.6929 24.7924 66.5083 23.6924 65.1544 23.6924Z" fill="white"></path>
<path d="M65.1559 24.5381C66.0867 24.5381 66.8483 25.2996 66.8483 26.2304V41.4612C66.8483 42.3919 66.0867 43.1535 65.1559 43.1535H38.079C37.1483 43.1535 36.3867 42.3919 36.3867 41.4612V26.2304C36.3867 25.2996 37.1483 24.5381 38.079 24.5381H65.1559Z" fill="white"></path>
<path d="M38.5589 29.751H37.2305V34.4048H38.5589C39.2612 34.4048 39.7689 34.2356 40.2174 33.8717C40.7505 33.4317 41.0635 32.7717 41.0635 32.0863C41.0551 30.7071 40.0312 29.751 38.5589 29.751ZM39.6251 33.254C39.3374 33.5079 38.9735 33.6263 38.3812 33.6263H38.1359V30.5463H38.3812C38.9651 30.5463 39.3205 30.6479 39.6251 30.9186C39.9382 31.1979 40.1243 31.6294 40.1243 32.0779C40.1243 32.5263 39.9382 32.9748 39.6251 33.254ZM41.4782 29.751H42.3835V34.4048H41.4782V29.751ZM44.6005 31.5363C44.0589 31.3333 43.8982 31.1979 43.8982 30.9525C43.8982 30.6563 44.1859 30.4363 44.5751 30.4363C44.8459 30.4363 45.0743 30.5463 45.3028 30.8171L45.7766 30.1994C45.3874 29.861 44.922 29.6833 44.4059 29.6833C43.5851 29.6833 42.9505 30.2586 42.9505 31.0202C42.9505 31.6633 43.2466 31.9933 44.0928 32.2979C44.4482 32.4248 44.6259 32.5094 44.7189 32.5602C44.8966 32.6786 44.9897 32.8479 44.9897 33.0425C44.9897 33.4233 44.6935 33.7025 44.2874 33.7025C43.8559 33.7025 43.5089 33.4825 43.2974 33.0848L42.7135 33.6517C43.1282 34.2694 43.6359 34.5402 44.3212 34.5402C45.2605 34.5402 45.9289 33.914 45.9289 33.0086C45.9459 32.2556 45.6328 31.9171 44.6005 31.5363ZM46.2251 32.0863C46.2251 33.4571 47.2997 34.5148 48.6789 34.5148C49.0682 34.5148 49.4066 34.4386 49.8128 34.244V33.1779C49.4489 33.5417 49.1274 33.6856 48.7212 33.6856C47.8074 33.6856 47.1559 33.0256 47.1559 32.0779C47.1559 31.181 47.8243 30.4786 48.6789 30.4786C49.1105 30.4786 49.4405 30.631 49.8128 31.0033V29.9371C49.4151 29.734 49.0851 29.6494 48.6959 29.6494C47.3335 29.6494 46.2251 30.7325 46.2251 32.0863ZM57.022 32.8817L55.7782 29.751H54.7882L56.7597 34.5233H57.2505L59.2559 29.751H58.2743L57.022 32.8817ZM59.6705 34.4048H62.2428V33.6179H60.5758V32.3656H62.1835V31.5786H60.5758V30.5463H62.2428V29.751H59.6705V34.4048ZM65.8389 31.1302C65.8389 30.2586 65.2382 29.7594 64.1889 29.7594H62.8435V34.4133H63.7489V32.5433H63.8674L65.1197 34.4133H66.2366L64.7728 32.4502C65.4582 32.3063 65.8389 31.841 65.8389 31.1302ZM64.0112 31.9002H63.7489V30.4871H64.0282C64.5951 30.4871 64.8997 30.724 64.8997 31.181C64.8997 31.6463 64.5951 31.9002 64.0112 31.9002Z" fill="#231F20"></path>
<path d="M52.5973 34.5734C53.255 34.5734 53.8858 34.3121 54.3509 33.847C54.816 33.3819 55.0773 32.7511 55.0773 32.0934C55.0773 31.4356 54.816 30.8048 54.3509 30.3397C53.8858 29.8746 53.255 29.6133 52.5973 29.6133C51.9395 29.6133 51.3087 29.8746 50.8436 30.3397C50.3785 30.8048 50.1172 31.4356 50.1172 32.0934C50.1172 32.7511 50.3785 33.3819 50.8436 33.847C51.3087 34.3121 51.9395 34.5734 52.5973 34.5734Z" fill="url(#paint0_linear_433_470)"></path>
<path opacity="0.65" d="M52.5973 34.5734C53.255 34.5734 53.8858 34.3121 54.3509 33.847C54.816 33.3819 55.0773 32.7511 55.0773 32.0934C55.0773 31.4356 54.816 30.8048 54.3509 30.3397C53.8858 29.8746 53.255 29.6133 52.5973 29.6133C51.9395 29.6133 51.3087 29.8746 50.8436 30.3397C50.3785 30.8048 50.1172 31.4356 50.1172 32.0934C50.1172 32.7511 50.3785 33.3819 50.8436 33.847C51.3087 34.3121 51.9395 34.5734 52.5973 34.5734Z" fill="url(#paint1_linear_433_470)"></path>
<path d="M66.4829 30.0439C66.4829 29.9593 66.4237 29.917 66.3306 29.917H66.1952V30.3231H66.2967V30.1624L66.4152 30.3231H66.5337L66.3983 30.1539C66.449 30.1455 66.4829 30.1031 66.4829 30.0439ZM66.3137 30.1031H66.2967V29.9931H66.3137C66.3644 29.9931 66.3898 30.0101 66.3898 30.0439C66.3898 30.0862 66.3644 30.1031 66.3137 30.1031Z" fill="#231F20"></path>
<path d="M66.3476 29.7646C66.153 29.7646 65.9922 29.9254 65.9922 30.12C65.9922 30.3146 66.153 30.4754 66.3476 30.4754C66.5422 30.4754 66.703 30.3146 66.703 30.12C66.703 29.9254 66.5422 29.7646 66.3476 29.7646ZM66.3476 30.4162C66.1953 30.4162 66.0599 30.2893 66.0599 30.12C66.0599 29.9593 66.1868 29.8239 66.3476 29.8239C66.4999 29.8239 66.6268 29.9593 66.6268 30.12C66.6268 30.2808 66.4999 30.4162 66.3476 30.4162Z" fill="#231F20"></path>
<path d="M66.8454 34.6787C66.8454 34.6787 58.46 40.5079 43.1328 43.1538H65.1523C65.5988 43.1538 66.0272 42.9774 66.3442 42.6629C66.6611 42.3485 66.841 41.9215 66.8446 41.475L66.8649 38.9196L66.8454 34.6796V34.6787Z" fill="#F48120"></path>
</g>
<g clip-path="url(#clip3_433_470)">
<path d="M65.1544 0H38.0775C36.6391 0 35.5391 1.1 35.5391 2.53846V17.7692C35.5391 19.2077 36.7237 20.3077 38.0775 20.3077H65.1544C66.5929 20.3077 67.6929 19.2077 67.6929 17.7692V2.53846C67.6929 1.1 66.5083 0 65.1544 0Z" fill="white"></path>
<path d="M65.1559 0.845703C66.0867 0.845703 66.8483 1.60724 66.8483 2.53801V17.7688C66.8483 18.6995 66.0867 19.4611 65.1559 19.4611H38.079C37.1483 19.4611 36.3867 18.6995 36.3867 17.7688V2.53801C36.3867 1.60724 37.1483 0.845703 38.079 0.845703H65.1559Z" fill="white"></path>
<path d="M48.2317 16.0766C51.5029 16.0766 54.1547 13.4248 54.1547 10.1535C54.1547 6.88232 51.5029 4.23047 48.2317 4.23047C44.9604 4.23047 42.3086 6.88232 42.3086 10.1535C42.3086 13.4248 44.9604 16.0766 48.2317 16.0766Z" fill="#EB001B"></path>
<path d="M55.0012 16.0766C58.2724 16.0766 60.9243 13.4248 60.9243 10.1535C60.9243 6.88232 58.2724 4.23047 55.0012 4.23047C51.73 4.23047 49.0781 6.88232 49.0781 10.1535C49.0781 13.4248 51.73 16.0766 55.0012 16.0766Z" fill="#F79E1B"></path>
<path d="M54.155 10.1541C54.155 8.12336 53.1397 6.34644 51.6166 5.33105C50.0935 6.43105 49.0781 8.20798 49.0781 10.1541C49.0781 12.1003 50.0935 13.9618 51.6166 14.9772C53.1397 13.9618 54.155 12.1849 54.155 10.1541Z" fill="#FF5F00"></path>
</g>
<path d="M100.646 44.0001H73.66C72.2331 44.0001 71.0762 42.8183 71.0762 41.3608V26.3316C71.0762 24.8742 72.2331 23.6924 73.66 23.6924H100.646C102.073 23.6924 103.23 24.8742 103.23 26.3316V41.3608C103.23 42.8183 102.073 44.0001 100.646 44.0001Z" fill="white"></path>
<path d="M84.4325 28.7695V36.7657C84.4325 38.3722 84.3045 39.4311 81.7614 39.4311H79.9805V35.6535C80.7818 35.877 81.7969 35.877 81.7969 35.877C83.4932 35.877 83.9872 35.2201 83.9872 34.4081V32.3233H82.4643V34.4081C82.4643 34.9156 82.1236 35.295 81.5096 35.295C80.9886 35.295 80.4745 35.1394 79.9805 34.8955V31.4349C79.9805 29.2077 80.8283 28.7695 82.6516 28.7695H84.4325Z" fill="#086CB4"></path>
<path d="M89.3779 28.7699V36.7658C89.3779 38.7374 88.8902 39.4311 86.7071 39.4311H84.9265L84.9258 35.2236C85.3619 35.6522 86.1649 35.9297 87.5299 35.8691C87.5299 35.8691 88.2111 35.8424 88.9326 35.6646V34.918C88.5821 35.0961 88.1369 35.2677 87.5837 35.3072C86.6127 35.3798 86.0325 34.918 86.0325 34.0998C86.0325 33.2819 86.6127 32.8197 87.5837 32.8923C88.1365 32.9321 88.5752 33.0968 88.9326 33.275V32.536C88.2108 32.3578 87.5299 32.3315 87.5299 32.3315C86.1649 32.2709 85.3619 32.5484 84.9258 32.977L84.9265 31.4348C84.9265 29.2077 85.6703 28.7695 87.5972 28.7695H89.3779V28.7699Z" fill="#E90037"></path>
<path d="M91.8795 33.5771C92.0841 33.5505 92.2343 33.3927 92.2289 33.2096C92.2343 33.0252 92.0851 32.8659 91.8795 32.8362C91.8598 32.8362 91.8136 32.8301 91.7807 32.8301H90.864V33.5829H91.8072L91.8351 33.5823C91.853 33.5814 91.8694 33.5799 91.8795 33.5771ZM90.8633 34.8608H91.8723L91.932 34.8575L91.9911 34.8492C92.1738 34.8171 92.3226 34.6853 92.3444 34.5L92.3473 34.4526L92.3444 34.4061C92.3226 34.2242 92.1738 34.0875 91.9911 34.0551C91.9521 34.048 91.9124 34.0444 91.8723 34.0435H90.8633V34.8608Z" fill="#69A547"></path>
<path d="M92.5442 28.7695C90.0743 28.7695 89.873 29.7188 89.873 31.4349V32.3233H92.4974L92.5446 32.3244C92.5929 32.3265 92.6423 32.3306 92.6727 32.3306C93.246 32.3583 93.6709 32.6646 93.6709 33.1944C93.6709 33.5829 93.4122 33.9214 92.9398 34.0225L92.8541 34.0379V34.0587L92.9361 34.0667C93.4499 34.1299 93.8406 34.4293 93.8769 34.8813L93.8794 34.9503L93.8769 35.0197C93.841 35.5214 93.4074 35.8478 92.8208 35.8752L92.74 35.877H89.873V39.4311H91.6539C94.0262 39.4311 94.3251 38.4452 94.3251 36.7657V28.7695H92.5442Z" fill="#69A547"></path>
<path d="M29.5701 44.0001H2.58379C1.15696 44.0001 0 42.8183 0 41.3608V26.3316C0 24.8742 1.15696 23.6924 2.58379 23.6924H29.5701C30.9969 23.6924 32.1538 24.8742 32.1538 26.3316V41.3608C32.1538 42.8183 30.9969 44.0001 29.5701 44.0001Z" fill="white"></path>
<path d="M14.1914 36.5819V31.0846C13.6365 31.3012 13.1861 31.6597 12.8403 32.1599C12.4945 32.6601 12.3216 33.2193 12.3216 33.8373C12.3216 34.4553 12.4945 35.0145 12.8403 35.5147C13.1861 36.015 13.6365 36.3707 14.1914 36.5819ZM18.1501 33.8373C18.1501 33.2186 17.9772 32.6595 17.6314 32.1599C17.2856 31.6603 16.8352 31.3019 16.2803 31.0846V36.59C16.8352 36.3734 17.2856 36.015 17.6314 35.5147C17.9772 35.0145 18.1501 34.4553 18.1501 33.8373ZM19.8379 33.8373C19.8379 34.6781 19.6325 35.4555 19.2217 36.1697C18.8109 36.8838 18.2519 37.4484 17.5449 37.8633C16.8379 38.2783 16.0682 38.4857 15.2358 38.4857C14.6126 38.4857 14.0171 38.3629 13.4495 38.1172C12.8819 37.8714 12.3923 37.5408 11.9808 37.1251C11.5694 36.7095 11.242 36.215 10.9987 35.6417C10.7554 35.0683 10.6338 34.4669 10.6338 33.8373C10.6338 32.9966 10.8392 32.2191 11.25 31.505C11.6608 30.7908 12.2198 30.2263 12.9268 29.8113C13.6338 29.3964 14.4035 29.1889 15.2358 29.1889C16.0682 29.1889 16.8379 29.3964 17.5449 29.8113C18.2519 30.2263 18.8109 30.7908 19.2217 31.505C19.6325 32.2191 19.8379 32.9966 19.8379 33.8373ZM22.8466 33.8932C22.8466 33.158 22.7012 32.4665 22.4103 31.8187C22.1195 31.1709 21.7335 30.6277 21.2523 30.189C20.7711 29.7504 20.2122 29.4041 19.5755 29.1503C18.9389 28.8965 18.2777 28.7695 17.5922 28.7695H15.2278C14.3063 28.7695 13.4596 28.9838 12.6875 29.4123C11.9155 29.8408 11.3003 30.449 10.8419 31.2369C10.3835 32.0249 10.1543 32.9106 10.1543 33.8942C10.1543 34.7985 10.3822 35.6379 10.8379 36.4123C11.2936 37.1867 11.9115 37.799 12.6916 38.2492C13.4716 38.6993 14.317 38.9241 15.2278 38.9234H17.5922C18.2677 38.9234 18.9261 38.7897 19.5675 38.5223C20.2088 38.2549 20.7704 37.8978 21.2523 37.4511C21.7341 37.0043 22.1201 36.4689 22.4103 35.8447C22.7005 35.2206 22.8459 34.5701 22.8466 33.8932Z" fill="#004A98"></path>
<g clip-path="url(#clip4_433_470)">
<path d="M29.6154 0H2.53846C1.1 0 0 1.1 0 2.53846V17.7692C0 19.2077 1.18462 20.3077 2.53846 20.3077H29.6154C31.0538 20.3077 32.1538 19.2077 32.1538 17.7692V2.53846C32.1538 1.1 30.9692 0 29.6154 0Z" fill="white"></path>
<path d="M29.6149 0.845703C30.5457 0.845703 31.3072 1.60724 31.3072 2.53801V17.7688C31.3072 18.6995 30.5457 19.4611 29.6149 19.4611H2.53801C1.60724 19.4611 0.845703 18.6995 0.845703 17.7688V2.53801C0.845703 1.60724 1.60724 0.845703 2.53801 0.845703H29.6149Z" fill="white"></path>
<path d="M23.9459 8.54645H23.692C23.3535 9.39261 23.0997 9.81569 22.8459 11.0849H24.4535C24.1997 9.81569 24.1997 9.22338 23.9459 8.54645ZM26.3997 13.5388H24.9612C24.8766 13.5388 24.8766 13.5388 24.792 13.4541L24.6228 12.6926L24.5382 12.5234H22.5074C22.4228 12.5234 22.3382 12.5234 22.3382 12.6926L22.0843 13.4541C22.0843 13.5388 21.9997 13.5388 21.9997 13.5388H20.2228L20.392 13.1157L22.8459 7.36184C22.8459 6.93876 23.0997 6.76953 23.5228 6.76953H24.792C24.8766 6.76953 24.9612 6.76953 24.9612 6.93876L26.1459 12.4388C26.2305 12.7772 26.3151 13.0311 26.3151 13.3695C26.3997 13.4541 26.3997 13.4541 26.3997 13.5388ZM15.0612 13.2849L15.3997 11.7618C15.4843 11.7618 15.5689 11.8465 15.5689 11.8465C16.1612 12.1003 16.7535 12.2695 17.3459 12.1849C17.5151 12.1849 17.7689 12.1003 17.9382 12.0157C18.3612 11.8465 18.3612 11.4234 18.0228 11.0849C17.8535 10.9157 17.5997 10.8311 17.3459 10.6618C17.0074 10.4926 16.6689 10.3234 16.4151 10.0695C15.3997 9.22338 15.7382 8.03876 16.3305 7.44645C16.8382 7.10799 17.092 6.76953 17.7689 6.76953C18.7843 6.76953 19.8843 6.76953 20.392 6.93876H20.4766C20.392 7.44645 20.3074 7.86953 20.1382 8.37722C19.7151 8.20799 19.292 8.03876 18.8689 8.03876C18.6151 8.03876 18.3612 8.03876 18.1074 8.12338C17.9382 8.12338 17.8535 8.20799 17.7689 8.29261C17.5997 8.46184 17.5997 8.71569 17.7689 8.88492L18.192 9.22338C18.5305 9.39261 18.8689 9.56184 19.1228 9.73107C19.5459 9.98492 19.9689 10.408 20.0535 10.9157C20.2228 11.6772 19.9689 12.3541 19.292 12.8618C18.8689 13.2003 18.6997 13.3695 18.1074 13.3695C16.9228 13.3695 15.992 13.4541 15.2305 13.2003C15.1459 13.3695 15.1459 13.3695 15.0612 13.2849ZM12.0997 13.5388C12.1843 12.9465 12.1843 12.9465 12.2689 12.6926C12.692 10.8311 13.1151 8.88492 13.4535 7.02338C13.5382 6.85415 13.5382 6.76953 13.7074 6.76953H15.2305C15.0612 7.78492 14.892 8.54645 14.6382 9.47722C14.3843 10.7465 14.1305 12.0157 13.792 13.2849C13.792 13.4541 13.7074 13.4541 13.5382 13.4541M4.23047 6.93876C4.23047 6.85415 4.3997 6.76953 4.48432 6.76953H7.36124C7.78431 6.76953 8.12278 7.02338 8.20739 7.44645L8.96893 11.1695C8.96893 11.2541 8.96893 11.2541 9.05354 11.3388C9.05354 11.2541 9.13816 11.2541 9.13816 11.2541L10.9151 6.93876C10.8305 6.85415 10.9151 6.76953 10.9997 6.76953H12.7766C12.7766 6.85415 12.7766 6.85415 12.692 6.93876L10.0689 13.1157C9.98431 13.2849 9.98431 13.3695 9.8997 13.4541C9.81508 13.5388 9.64585 13.4541 9.47662 13.4541H8.20739C8.12278 13.4541 8.03816 13.4541 8.03816 13.2849L6.68431 8.03876C6.51508 7.86953 6.26124 7.61568 5.92278 7.53107C5.41508 7.27722 4.48431 7.10799 4.31508 7.10799L4.23047 6.93876Z" fill="#142688"></path>
</g>
<defs>
<linearGradient id="paint0_linear_433_470" x1="53.864" y1="34.0784" x2="52.1505" y2="31.3953" gradientUnits="userSpaceOnUse">
<stop stop-color="#F89F20"></stop>
<stop offset="0.25" stop-color="#F79A20"></stop>
<stop offset="0.533" stop-color="#F68D20"></stop>
<stop offset="0.62" stop-color="#F58720"></stop>
<stop offset="0.723" stop-color="#F48120"></stop>
<stop offset="1" stop-color="#F37521"></stop>
</linearGradient>
<linearGradient id="paint1_linear_433_470" x1="53.594" y1="34.0421" x2="51.0894" y2="29.1462" gradientUnits="userSpaceOnUse">
<stop stop-color="#F58720"></stop>
<stop offset="0.359" stop-color="#E16F27"></stop>
<stop offset="0.703" stop-color="#D4602C"></stop>
<stop offset="0.982" stop-color="#D05B2E"></stop>
</linearGradient>
<clipPath id="clip0_433_470">
<rect width="32.1538" height="20.3077" fill="white" transform="translate(71.0762)"></rect>
</clipPath>
<clipPath id="clip1_433_470">
<rect width="32.1538" height="20.3077" fill="white" transform="translate(71.0762)"></rect>
</clipPath>
<clipPath id="clip2_433_470">
<rect width="32.1538" height="20.3077" fill="white" transform="translate(35.5391 23.6924)"></rect>
</clipPath>
<clipPath id="clip3_433_470">
<rect width="32.1538" height="20.3077" fill="white" transform="translate(35.5391)"></rect>
</clipPath>
<clipPath id="clip4_433_470">
<rect width="32.1538" height="20.3077" fill="white"></rect>
</clipPath>
</defs>
</svg>