<svg width="268" height="64" viewBox="0 0 268 64" fill="none" xmlns="http://www.w3.org/2000/svg">
<rect width="268" height="64" rx="4" fill="#FFC438"/>
<g clip-path="url(#clip0_1_19)">
<path d="M175.592 21.5132H167.106C166.535 21.5132 166.04 21.9389 165.926 22.5194L162.501 44.6151C162.425 45.0407 162.768 45.4277 163.186 45.4277H167.524C167.943 45.4277 168.285 45.1181 168.324 44.7312L169.313 38.4623C169.389 37.8819 169.884 37.4562 170.493 37.4562H173.156C178.75 37.4562 181.947 34.7088 182.784 29.2526C183.164 26.8921 182.784 24.9959 181.718 23.6803C180.577 22.2485 178.446 21.5132 175.592 21.5132V21.5132ZM176.581 29.5621C176.125 32.6578 173.803 32.6578 171.558 32.6578H170.264L171.178 26.8921C171.216 26.5438 171.52 26.2729 171.863 26.2729H172.433C173.955 26.2729 175.402 26.2729 176.163 27.1629C176.619 27.7047 176.733 28.4786 176.581 29.5621V29.5621Z" fill="#009CDE"/>
<path d="M115.201 21.5132H106.715C106.144 21.5132 105.649 21.9389 105.535 22.5194L102.11 44.6151C102.034 45.0407 102.376 45.4277 102.795 45.4277H106.829C107.4 45.4277 107.894 45.002 108.008 44.4216L108.922 38.4623C108.998 37.8819 109.493 37.4562 110.101 37.4562H112.765C118.359 37.4562 121.556 34.7088 122.393 29.2526C122.773 26.8921 122.393 24.9959 121.327 23.6803C120.186 22.2485 118.055 21.5132 115.201 21.5132V21.5132ZM116.19 29.5621C115.733 32.6578 113.412 32.6578 111.167 32.6578H109.873L110.786 26.8921C110.824 26.5438 111.129 26.2729 111.471 26.2729H112.042C113.564 26.2729 115.01 26.2729 115.771 27.1629C116.228 27.7047 116.342 28.4786 116.19 29.5621V29.5621ZM140.506 29.446H136.435C136.092 29.446 135.788 29.7169 135.75 30.0652L135.559 31.2261L135.293 30.8004C134.418 29.5234 132.477 29.0591 130.498 29.0591C126.008 29.0591 122.202 32.5031 121.441 37.3401C121.061 39.7393 121.594 42.0611 122.964 43.6864C124.219 45.1568 125.97 45.776 128.063 45.776C131.678 45.776 133.657 43.4155 133.657 43.4155L133.466 44.5764C133.39 45.002 133.733 45.389 134.151 45.389H137.804C138.375 45.389 138.87 44.9633 138.984 44.3829L141.191 30.2587C141.267 29.8717 140.963 29.446 140.506 29.446V29.446ZM134.874 37.4949C134.494 39.8554 132.629 41.442 130.308 41.442C129.128 41.442 128.177 41.055 127.568 40.3198C126.959 39.5845 126.731 38.5784 126.921 37.4175C127.302 35.0957 129.166 33.4318 131.449 33.4318C132.591 33.4318 133.542 33.8187 134.151 34.554C134.798 35.3279 135.065 36.334 134.874 37.4949V37.4949Z" fill="#003087"/>
<path d="M200.897 29.446H196.826C196.483 29.446 196.179 29.7169 196.141 30.0652L195.95 31.2261L195.684 30.8004C194.809 29.5234 192.868 29.0591 190.889 29.0591C186.399 29.0591 182.594 32.5031 181.833 37.3401C181.452 39.7393 181.985 42.0611 183.355 43.6864C184.61 45.1568 186.361 45.776 188.454 45.776C192.069 45.776 194.048 43.4155 194.048 43.4155L193.858 44.5764C193.781 45.0021 194.124 45.389 194.542 45.389H198.196C198.766 45.389 199.261 44.9634 199.375 44.3829L201.582 30.2587C201.659 29.8717 201.354 29.446 200.897 29.446V29.446ZM195.266 37.4949C194.885 39.8554 193.02 41.442 190.699 41.442C189.519 41.442 188.568 41.055 187.959 40.3198C187.35 39.5845 187.122 38.5784 187.312 37.4175C187.693 35.0957 189.557 33.4318 191.841 33.4318C192.982 33.4318 193.934 33.8188 194.542 34.554C195.189 35.3279 195.456 36.334 195.266 37.4949V37.4949Z" fill="#009CDE"/>
<path d="M162.121 29.4469H158.049C157.668 29.4469 157.288 29.6404 157.059 29.9887L151.427 38.4245L149.03 30.3369C148.878 29.8339 148.421 29.4856 147.888 29.4856H143.893C143.398 29.4856 143.056 29.9887 143.208 30.453L147.698 43.842L143.474 49.8787C143.132 50.343 143.474 51.0009 144.045 51.0009H148.117C148.497 51.0009 148.878 50.8074 149.068 50.4978L162.615 30.6078C163.034 30.1047 162.691 29.4469 162.121 29.4469V29.4469Z" fill="#003087"/>
<path d="M205.692 22.0925L202.229 44.5752C202.153 45.0008 202.495 45.3878 202.914 45.3878H206.415C206.985 45.3878 207.48 44.9621 207.594 44.3817L211.019 22.286C211.095 21.8603 210.753 21.4733 210.334 21.4733H206.415C206.034 21.512 205.73 21.7442 205.692 22.0925Z" fill="#009CDE"/>
<path d="M85.5567 22.6354C86.0133 19.6945 85.5567 17.6823 83.9965 15.8635C82.246 13.8513 79.1256 13 75.13 13H63.5236C62.7245 13 62.0015 13.6191 61.8873 14.4318L57.0164 45.6212C56.9023 46.2403 57.397 46.7821 58.0058 46.7821H65.1599L64.6652 49.9552C64.5891 50.4969 65.0077 50.9613 65.5405 50.9613H71.591C72.314 50.9613 72.9229 50.4195 73.037 49.723L73.1131 49.4134L74.2547 42.0611L74.3309 41.6741C74.445 40.9389 75.0539 40.4358 75.7769 40.4358H76.6902C82.5504 40.4358 87.1169 38.0367 88.4488 31.0326C89.0196 28.0916 88.7151 25.6538 87.2311 23.9511C86.7744 23.4481 86.2036 22.9837 85.5567 22.6354" fill="#009CDE"/>
<path d="M85.5567 22.6354C86.0133 19.6945 85.5567 17.6823 83.9965 15.8635C82.246 13.8513 79.1256 13 75.13 13H63.5236C62.7245 13 62.0015 13.6191 61.8873 14.4318L57.0164 45.6212C56.9023 46.2403 57.397 46.7821 58.0058 46.7821H65.1599L66.9484 35.1731L66.9104 35.5214C67.0245 34.7088 67.7095 34.0896 68.5467 34.0896H71.9715C78.669 34.0896 83.9204 31.3422 85.4425 23.332L85.5567 22.6354Z" fill="#012169"/>
<path d="M68.9272 22.6741C69.0033 22.1711 69.3078 21.7841 69.7264 21.5519C69.9166 21.4745 70.1449 21.3971 70.3352 21.3971H79.4681C80.5336 21.3971 81.5611 21.4745 82.4743 21.6293C82.7407 21.668 83.0071 21.7067 83.2354 21.7841C83.5018 21.8228 83.7301 21.9002 83.9584 21.9776L84.3009 22.0937C84.7576 22.2485 85.1762 22.442 85.5567 22.6354C86.0133 19.6945 85.5567 17.6823 83.9965 15.8635C82.246 13.8513 79.1256 13 75.13 13H63.5236C62.7245 13 62.0015 13.6191 61.8873 14.4318L57.0164 45.6212C56.9023 46.2403 57.397 46.7821 58.0058 46.7821H65.1599L66.9484 35.1731L68.9272 22.6741Z" fill="#003087"/>
</g>
<defs>
<clipPath id="clip0_1_19">
<rect width="154" height="38" fill="white" transform="translate(57 13)"/>
</clipPath>
</defs>
</svg>
